<svg width="16" height="4" viewBox="0 0 16 4" fill="none" xmlns="http://www.w3.org/2000/svg">
    <path
        d="M13 1.80199C13 2.35366 13.4477 2.80087 14 2.80087C14.5523 2.80087 15 2.35366 15 1.80199C15 1.25032 14.5523 0.803101 14 0.803101C13.4477 0.803101 13 1.25032 13 1.80199Z"
        fill="#695CCD" />
    <path
        d="M7 1.80199C7 2.35366 7.44772 2.80087 8 2.80087C8.55228 2.80087 9 2.35366 9 1.80199C9 1.25032 8.55228 0.803101 8 0.803101C7.44772 0.803101 7 1.25032 7 1.80199Z"
        fill="#695CCD" />
    <path
        d="M1 1.80199C1 2.35366 1.44772 2.80087 2 2.80087C2.55228 2.80087 3 2.35366 3 1.80199C3 1.25032 2.55228 0.803101 2 0.803101C1.44772 0.803101 1 1.25032 1 1.80199Z"
        fill="#695CCD" />
    <path
        d="M13 1.80199C13 2.35366 13.4477 2.80087 14 2.80087C14.5523 2.80087 15 2.35366 15 1.80199C15 1.25032 14.5523 0.803101 14 0.803101C13.4477 0.803101 13 1.25032 13 1.80199Z"
        stroke="#695CCD" stroke-linecap="round" stroke-linejoin="round" />
    <path
        d="M7 1.80199C7 2.35366 7.44772 2.80087 8 2.80087C8.55228 2.80087 9 2.35366 9 1.80199C9 1.25032 8.55228 0.803101 8 0.803101C7.44772 0.803101 7 1.25032 7 1.80199Z"
        stroke="#695CCD" stroke-linecap="round" stroke-linejoin="round" />
    <path
        d="M1 1.80199C1 2.35366 1.44772 2.80087 2 2.80087C2.55228 2.80087 3 2.35366 3 1.80199C3 1.25032 2.55228 0.803101 2 0.803101C1.44772 0.803101 1 1.25032 1 1.80199Z"
        stroke="#695CCD" stroke-linecap="round" stroke-linejoin="round" />
</svg>