<svg width="30" height="29" viewBox="0 0 30 29" fill="none" xmlns="http://www.w3.org/2000/svg">
    <g filter="url(#filter0_d_3007_228)">
        <path
            d="M5.16398 8.58221C4.8452 8.28774 5.01836 7.7554 5.44953 7.70434L11.559 6.98049C11.7347 6.95968 11.8874 6.84945 11.9615 6.68894L14.5384 1.10852C14.7203 0.71469 15.2808 0.714615 15.4626 1.10845L18.0395 6.68882C18.1136 6.84933 18.2653 6.95986 18.441 6.98067L24.5508 7.70434C24.982 7.7554 25.1547 8.2879 24.8359 8.58237L20.3195 12.7551C20.1896 12.8751 20.1317 13.0538 20.1662 13.2271L21.3649 19.2547C21.4495 19.6801 20.9962 20.0097 20.6174 19.7979L15.249 16.7954C15.0946 16.7091 14.907 16.7095 14.7526 16.7958L9.3836 19.7971C9.00472 20.0089 8.55066 19.6801 8.63528 19.2547L9.83411 13.2275C9.8686 13.0541 9.8109 12.8751 9.68098 12.7551L5.16398 8.58221Z"
            fill="#FFB23D" stroke="white" stroke-linecap="round" stroke-linejoin="round" />
    </g>
    <defs>
        <filter id="filter0_d_3007_228" x="0.499313" y="0.31311" width="29.0013" height="28.052"
            filterUnits="userSpaceOnUse" color-interpolation-filters="sRGB">
            <feFlood flood-opacity="0" result="BackgroundImageFix" />
            <feColorMatrix in="SourceAlpha" type="matrix" values="0 0 0 0 0 0 0 0 0 0 0 0 0 0 0 0 0 0 127 0"
                result="hardAlpha" />
            <feOffset dy="4" />
            <feGaussianBlur stdDeviation="2" />
            <feComposite in2="hardAlpha" operator="out" />
            <feColorMatrix type="matrix" values="0 0 0 0 0 0 0 0 0 0 0 0 0 0 0 0 0 0 0.25 0" />
            <feBlend mode="normal" in2="BackgroundImageFix" result="effect1_dropShadow_3007_228" />
            <feBlend mode="normal" in="SourceGraphic" in2="effect1_dropShadow_3007_228" result="shape" />
        </filter>
    </defs>
</svg>