<svg width="30" height="30" viewBox="0 0 30 30" fill="none" xmlns="http://www.w3.org/2000/svg">
    <g filter="url(#filter0_d_3007_18)">
        <path
            d="M5.16398 9.1776C4.8452 8.88374 5.01836 8.35251 5.44953 8.30155L11.559 7.5792C11.7347 7.55843 11.8874 7.44843 11.9615 7.28825L14.5384 1.71938C14.7203 1.32636 15.2808 1.32628 15.4626 1.7193L18.0395 7.28813C18.1136 7.44831 18.2653 7.55861 18.441 7.57938L24.5508 8.30155C24.982 8.35251 25.1547 8.8839 24.8359 9.17776L20.3195 13.3419C20.1896 13.4616 20.1317 13.6399 20.1662 13.8129L21.3649 19.828C21.4495 20.2525 20.9962 20.5815 20.6174 20.3701L15.249 17.3738C15.0946 17.2877 14.907 17.2881 14.7526 17.3742L9.3836 20.3693C9.00472 20.5807 8.55066 20.2525 8.63528 19.828L9.83411 13.8133C9.8686 13.6403 9.8109 13.4616 9.68098 13.3418L5.16398 9.1776Z"
            stroke="white" stroke-width="2" stroke-linecap="round" stroke-linejoin="round" />
    </g>
    <defs>
        <filter id="filter0_d_3007_18" x="-0.00163269" y="0.424576" width="30.0031" height="29.0134"
            filterUnits="userSpaceOnUse" color-interpolation-filters="sRGB">
            <feFlood flood-opacity="0" result="BackgroundImageFix" />
            <feColorMatrix in="SourceAlpha" type="matrix" values="0 0 0 0 0 0 0 0 0 0 0 0 0 0 0 0 0 0 127 0"
                result="hardAlpha" />
            <feOffset dy="4" />
            <feGaussianBlur stdDeviation="2" />
            <feComposite in2="hardAlpha" operator="out" />
            <feColorMatrix type="matrix" values="0 0 0 0 0 0 0 0 0 0 0 0 0 0 0 0 0 0 0.25 0" />
            <feBlend mode="normal" in2="BackgroundImageFix" result="effect1_dropShadow_3007_18" />
            <feBlend mode="normal" in="SourceGraphic" in2="effect1_dropShadow_3007_18" result="shape" />
        </filter>
    </defs>
</svg>